<?xml version="1.0" standalone="no"?>
<!DOCTYPE svg PUBLIC "-//W3C//DTD SVG 20010904//EN"
 "http://www.w3.org/TR/2001/REC-SVG-20010904/DTD/svg10.dtd">
<svg version="1.0" xmlns="http://www.w3.org/2000/svg"
 width="364.000000pt" height="400.000000pt" viewBox="0 0 364.000000 400.000000"
 preserveAspectRatio="xMidYMid meet">
<metadata>
Created by potrace 1.10, written by Peter Selinger 2001-2011
</metadata>
<g transform="translate(0.000000,400.000000) scale(0.050000,-0.050000)"
fill="#000000" stroke="none">
<path d="M2860 7766 c-423 -45 -767 -154 -1029 -323 -98 -63 -116 -86 -89
-113 14 -13 26 -9 39 12 10 18 48 44 84 58 36 15 114 48 174 75 387 172 1040
207 1551 83 44 -11 103 -23 130 -28 74 -13 280 -97 280 -114 0 -8 15 -9 33 -2
23 9 29 5 19 -10 -9 -15 -4 -20 13 -13 27 10 325 -159 385 -218 18 -18 39 -33
47 -33 20 0 359 -337 447 -444 87 -106 175 -250 140 -229 -13 9 -24 6 -24 -4
0 -11 16 -24 35 -28 31 -8 31 -10 -5 -24 -211 -77 -375 -143 -450 -180 -49
-25 -103 -41 -118 -36 -15 6 -22 2 -16 -9 7 -11 1 -20 -12 -20 -13 0 -64 -19
-114 -42 -143 -66 -345 -144 -373 -144 -15 0 -27 -9 -27 -20 0 -11 -10 -20
-23 -20 -21 0 -240 -88 -447 -179 -143 -64 -170 -68 -172 -27 -4 97 -14 129
-50 158 -21 17 -24 24 -8 17 22 -11 24 -9 9 9 -43 46 -227 28 -198 -20 8 -13
24 -11 42 4 16 14 28 16 26 6 -8 -39 2 -52 26 -32 17 14 33 12 51 -8 16 -18
18 -28 4 -28 -12 0 -16 -10 -9 -21 7 -12 25 -17 39 -12 16 6 24 -3 21 -22 -2
-18 -15 -36 -29 -41 -18 -6 -18 -15 -1 -36 13 -15 33 -22 44 -15 12 7 15 4 8
-8 -20 -32 -153 -60 -228 -47 -8 1 -1 11 15 22 26 17 25 19 -5 20 -19 0 -35
15 -35 34 0 18 -18 52 -39 75 -49 52 -25 116 27 72 18 -14 32 -18 32 -8 0 19
-80 74 -91 63 -42 -43 -4 -272 52 -306 14 -9 13 -24 -5 -47 -22 -28 -22 -30 4
-11 52 39 160 56 111 18 -34 -26 -34 -30 -5 -30 19 0 34 -14 34 -32 0 -44 79
-151 101 -137 10 6 13 -3 7 -20 -7 -17 -24 -31 -38 -31 -14 0 -31 -15 -38 -32
-9 -25 -19 -27 -39 -10 -15 12 -33 15 -41 7 -8 -7 -8 2 -1 21 9 23 3 34 -19
34 -18 0 -32 14 -32 30 0 17 -9 30 -20 30 -11 0 -18 23 -15 50 3 37 12 48 34
39 23 -8 25 -6 8 12 -57 57 -117 14 -117 -84 0 -52 -7 -100 -15 -109 -55 -55
92 -120 155 -68 16 13 42 20 57 14 16 -6 38 -1 51 12 16 16 22 15 22 -4 0 -14
-18 -30 -40 -36 -22 -6 -40 -20 -40 -30 0 -11 -13 -15 -30 -9 -17 7 -38 -5
-51 -29 -19 -34 -34 -38 -115 -28 -67 9 -85 7 -65 -7 47 -33 12 -47 -62 -26
l-67 18 67 26 c75 27 40 73 -40 52 -32 -8 -35 -5 -16 19 13 15 43 28 65 28 29
0 36 6 21 21 -25 25 -108 -3 -182 -61 -44 -35 -46 -40 -13 -42 25 -1 29 -5 11
-12 -15 -6 -59 -45 -97 -88 -38 -42 -77 -75 -85 -72 -20 5 -221 -201 -221
-227 0 -43 -66 -178 -82 -168 -10 6 -18 -3 -18 -21 0 -18 -8 -27 -18 -21 -25
15 -3 91 25 85 14 -2 24 26 24 70 1 40 11 85 22 100 11 14 31 67 45 116 15 50
34 111 44 136 10 26 12 58 4 70 -9 16 -3 16 18 -1 25 -21 35 -20 55 3 13 16
39 28 59 27 38 -3 168 46 155 58 -4 5 -33 -1 -65 -13 -55 -19 -56 -18 -18 11
26 20 32 35 18 45 -18 11 -23 121 -10 184 1 6 24 -16 52 -48 27 -31 45 -64 40
-73 -6 -8 10 -10 34 -4 40 11 41 13 7 25 -37 13 69 80 127 80 12 0 22 9 22 20
0 11 14 20 30 20 17 0 30 9 30 20 0 26 0 26 -91 -19 -49 -23 -86 -31 -98 -20
-60 59 -349 -59 -385 -156 -7 -19 -34 -63 -60 -97 -25 -34 -46 -69 -46 -77 0
-9 -38 -71 -85 -139 -157 -226 -114 -483 79 -467 73 6 100 2 89 -13 -28 -39
-261 -329 -297 -371 -19 -23 -49 -41 -67 -41 -17 0 -52 -19 -78 -43 -62 -58
-288 -148 -466 -186 -422 -89 -643 -171 -830 -308 -116 -84 -134 -106 -127
-150 2 -9 -25 -48 -58 -87 -69 -78 -84 -276 -22 -276 32 0 162 172 148 195 -5
9 1 14 12 10 12 -3 52 30 88 72 l65 78 63 -53 c64 -54 266 -152 314 -152 14 0
124 46 244 103 120 57 263 118 318 136 117 37 310 140 310 165 0 9 -26 3 -59
-13 -32 -17 -138 -57 -235 -89 -97 -33 -256 -87 -354 -121 -164 -57 -281 -71
-136 -16 35 13 64 31 64 39 0 22 -48 20 -71 -3 -39 -39 -269 -99 -269 -70 0
53 77 102 145 91 8 -1 15 7 15 19 0 11 11 19 25 17 49 -9 186 28 236 63 28 20
114 51 190 68 77 18 157 36 179 42 97 23 -45 -30 -193 -72 -112 -32 -151 -51
-143 -71 7 -18 -4 -28 -31 -28 -38 0 -77 -33 -59 -51 5 -4 114 32 244 82 130
49 253 89 274 89 21 0 38 9 38 19 0 11 13 15 28 9 15 -6 49 13 76 41 26 28 67
55 91 60 43 8 121 82 381 361 71 77 120 122 107 100 -12 -22 -85 -107 -162
-190 -141 -150 -172 -198 -106 -163 67 36 279 274 448 503 192 259 214 293
180 272 -15 -9 -18 -3 -10 18 7 18 22 28 35 24 12 -5 39 14 61 42 21 28 27 44
14 36 -12 -8 -23 -5 -23 6 0 11 8 25 18 31 10 6 16 34 13 62 l-6 51 59 -56
c32 -31 73 -85 90 -121 55 -116 173 -216 189 -161 12 43 13 43 15 -8 1 -29 11
-59 22 -66 39 -24 19 -77 -65 -171 -47 -52 -116 -137 -155 -189 -38 -52 -113
-145 -166 -206 -58 -68 -91 -124 -85 -143 10 -28 8 -27 -14 1 -100 125 -139
161 -165 151 -45 -18 -37 -45 34 -110 52 -50 59 -65 39 -90 -17 -20 -18 -34
-4 -42 12 -8 21 -8 21 -1 0 7 15 -2 34 -21 20 -20 37 -26 41 -13 4 12 38 1 79
-27 82 -56 110 -62 93 -19 -8 21 2 30 36 31 l47 1 -44 31 c-88 62 -130 106
-122 130 6 17 21 12 49 -16 35 -35 46 -37 78 -14 64 47 90 34 58 -28 -38 -73
31 -118 83 -53 29 35 30 35 20 1 -7 -20 -12 -45 -12 -56 0 -12 -25 -15 -62 -7
-66 15 -84 -65 -20 -86 20 -7 24 1 15 25 -11 28 -6 32 22 21 79 -32 96 -32
100 4 14 119 48 186 94 186 25 0 61 18 81 39 19 22 50 45 69 51 57 18 173 252
123 249 -31 -1 -75 -52 -66 -77 6 -19 -1 -24 -21 -17 -42 17 -95 -46 -95 -112
0 -40 -10 -53 -40 -53 -52 0 -50 18 10 100 28 37 50 75 50 85 0 9 25 40 55 68
58 53 18 30 -90 -51 -45 -34 -58 -56 -45 -72 14 -16 7 -35 -20 -60 -41 -37
-57 -15 -18 24 15 15 15 25 0 35 -13 8 -23 -2 -24 -23 -1 -21 -5 -26 -11 -11
-6 14 -20 20 -31 13 -14 -9 -13 -17 1 -26 12 -7 16 -34 9 -59 -7 -30 -17 -38
-26 -23 -11 19 -26 18 -62 -1 -45 -24 -46 -23 -18 11 17 20 -13 6 -65 -31 -73
-51 -101 -61 -119 -43 -18 18 -6 30 51 54 60 25 86 70 41 70 -6 0 -4 -10 4
-23 9 -14 5 -18 -9 -9 -37 23 -27 52 18 52 27 0 36 8 27 23 -10 16 -4 20 20
11 20 -8 29 -6 22 6 -7 11 4 20 24 20 20 0 62 27 93 60 31 33 65 60 75 60 10
0 18 10 18 22 0 12 -13 17 -28 12 -18 -7 -26 1 -23 22 3 19 -3 46 -15 60 -15
18 -6 41 33 81 56 58 71 96 28 70 -17 -10 -16 -4 2 19 31 38 53 46 31 11 -8
-13 -3 -18 14 -12 15 5 25 22 21 38 -3 15 0 20 8 12 9 -8 27 -5 42 8 15 12 27
15 27 6 0 -9 22 5 49 30 28 26 45 55 39 64 -6 10 -4 16 6 13 20 -7 93 44 114
79 21 36 -136 -48 -179 -96 -19 -21 -49 -39 -66 -39 -24 0 -21 9 11 45 67 74
153 215 139 229 -17 16 -107 -67 -149 -138 -25 -43 -38 -50 -59 -32 -21 18
-29 13 -38 -19 -6 -23 -25 -47 -41 -54 -22 -8 -27 -2 -18 22 8 19 4 39 -7 46
-13 9 -7 62 19 152 49 171 49 174 0 204 -34 21 -40 20 -40 -6 0 -17 9 -26 20
-19 36 22 21 -49 -18 -88 -21 -21 -44 -75 -52 -120 -7 -45 -22 -82 -31 -82
-43 0 -49 175 -10 265 10 22 7 35 -8 35 -12 0 -30 -20 -40 -45 -22 -53 -23 -7
-2 65 8 28 7 74 -1 104 -13 49 162 276 213 276 6 0 31 19 55 43 24 24 31 36
16 27 -19 -11 -23 -9 -14 6 15 24 112 -8 112 -38 0 -15 60 -40 119 -51 39 -6
102 -91 91 -122 -14 -41 0 -30 105 76 55 55 120 104 146 109 25 5 55 18 67 30
11 11 34 20 52 20 18 0 84 31 148 70 64 38 200 106 302 151 175 77 264 138
239 163 -6 7 18 32 55 57 36 25 75 55 86 67 11 12 61 49 110 82 138 92 198
150 155 150 -19 0 -35 9 -35 20 0 11 18 20 40 20 22 0 40 -13 40 -29 0 -16 15
-37 33 -48 48 -26 144 -356 169 -582 98 -860 -353 -1857 -1020 -2254 l-86 -52
45 79 c44 76 44 239 0 168 -11 -18 -20 -9 -30 29 -19 76 -71 152 -71 103 0
-50 -36 -42 -45 11 -8 43 -9 43 -31 -10 -13 -30 -28 -55 -35 -55 -6 0 -6 9 1
20 7 11 -4 21 -24 21 -32 2 -32 3 3 17 39 15 39 16 0 40 -29 19 -31 22 -5 14
45 -13 66 22 35 59 -19 23 -17 29 11 29 25 0 32 11 24 40 -7 26 2 47 26 60 32
17 46 0 111 -125 41 -80 82 -155 91 -167 10 -12 12 -28 4 -35 -7 -7 -2 -13 11
-13 12 0 24 -16 25 -35 1 -21 5 -25 11 -10 6 14 19 20 29 14 53 -33 -101 277
-227 457 -50 72 -107 164 -126 203 -19 40 -92 131 -162 203 -131 135 -144 157
-102 175 18 8 16 16 -8 32 -20 13 -29 36 -23 61 6 22 -4 70 -22 108 -17 37
-32 90 -32 116 0 26 -10 58 -22 70 -14 14 -15 35 -3 59 24 48 -15 184 -50 172
-14 -5 -20 -17 -14 -27 6 -10 3 -18 -8 -18 -10 0 -24 -14 -30 -30 -10 -25 -5
-27 27 -10 45 24 53 1 15 -37 -20 -20 -19 -29 5 -44 26 -17 24 -25 -10 -55
-22 -20 -53 -58 -68 -85 l-28 -49 43 38 c53 47 60 5 11 -65 -18 -25 -27 -50
-22 -56 6 -6 21 8 33 31 29 54 69 55 55 2 -6 -23 2 -53 18 -69 21 -21 22 -30
3 -37 -14 -5 -18 -16 -10 -24 8 -9 28 -4 45 10 17 14 36 21 41 16 6 -6 -15
-30 -45 -54 -138 -106 -305 -228 -403 -294 -58 -39 -102 -76 -96 -82 6 -5 31
4 56 22 58 40 90 41 57 2 -14 -16 -18 -30 -9 -30 8 0 0 -17 -19 -38 -20 -22
-27 -43 -15 -50 11 -7 23 -5 26 3 4 8 45 45 92 82 47 36 85 79 85 95 0 15 10
28 21 28 12 0 15 -10 8 -22 -23 -37 56 13 107 68 53 57 17 91 -49 46 -126 -86
-155 -96 -77 -25 44 39 91 72 103 72 13 1 28 12 34 26 7 18 10 18 11 1 1 -16
25 -20 72 -12 45 7 70 3 70 -11 0 -13 -9 -23 -20 -23 -35 0 -8 -87 32 -102 21
-8 26 -16 12 -17 -15 0 -21 -10 -15 -20 7 -11 24 -15 39 -9 15 6 32 -4 39 -21
7 -19 1 -31 -16 -31 -16 0 -34 -8 -40 -18 -6 -9 5 -16 24 -15 19 2 33 -7 31
-20 -3 -12 23 -28 58 -35 66 -13 114 -61 115 -116 1 -18 11 -40 24 -48 14 -9
18 -5 9 9 -9 14 -1 23 18 23 24 0 29 -11 20 -41 -7 -22 -3 -54 11 -70 19 -23
13 -32 -32 -49 -63 -24 -107 -74 -108 -122 -1 -18 -24 -58 -52 -90 -96 -110
-95 -107 -14 -102 105 6 122 -84 26 -142 -33 -21 -54 -44 -47 -52 8 -8 1 -9
-16 -2 -33 13 -144 -63 -129 -89 5 -8 -12 -34 -38 -57 -35 -30 -46 -57 -41
-98 4 -31 8 -77 9 -103 1 -35 8 -43 26 -29 14 11 70 35 125 55 55 20 131 55
170 78 38 23 85 44 103 47 19 3 72 25 118 49 69 36 86 38 100 15 21 -34 15
-40 -111 -106 -55 -28 -84 -52 -64 -52 60 0 211 78 223 115 6 19 47 56 92 81
460 262 912 943 1042 1570 95 455 -3 1325 -159 1412 -28 16 -25 21 21 33 30 7
55 21 55 31 0 24 -3 23 -88 -12 -60 -26 -72 -26 -72 -3 0 16 27 39 60 53 33
14 60 33 60 43 0 10 -17 9 -39 -2 -55 -30 -65 -26 -52 17 7 21 3 44 -8 52 -28
17 31 76 84 84 45 7 240 128 227 141 -5 5 -27 -1 -49 -13 -22 -12 -63 -22 -92
-22 -28 0 -51 -8 -51 -19 0 -10 -18 -24 -40 -31 -22 -7 -69 -36 -105 -65 -36
-29 -55 -41 -42 -27 69 78 -408 639 -730 859 -491 335 -1114 492 -1703 429z
m515 -37 c-15 -16 -454 -17 -469 -1 -7 6 98 12 234 12 136 0 242 -5 235 -11z
m245 -46 c6 -7 46 -15 89 -18 44 -3 88 -14 98 -24 10 -10 29 -14 43 -8 36 14
398 -136 370 -153 -17 -10 -15 -18 7 -26 17 -7 34 -1 38 12 5 14 19 5 32 -21
14 -25 34 -45 45 -45 11 0 14 10 6 23 -9 15 -5 18 11 8 60 -37 -19 -60 -81
-23 -33 20 -66 31 -72 25 -6 -7 13 -21 42 -32 30 -12 49 -30 42 -41 -7 -11 1
-15 17 -8 16 6 57 -3 91 -21 58 -30 62 -30 63 3 0 34 2 34 27 1 14 -19 33 -28
42 -20 9 8 10 4 3 -9 -8 -13 -26 -20 -39 -15 -15 6 -27 -7 -29 -31 l-3 -41 56
40 c58 41 98 34 60 -11 -11 -14 -34 -21 -49 -15 -18 7 -29 -1 -29 -22 0 -20
13 -30 34 -27 21 4 38 -9 43 -33 6 -31 2 -35 -20 -18 -15 12 -72 56 -127 97
-55 42 -98 84 -95 94 4 11 -2 14 -13 7 -28 -17 -84 10 -69 34 9 14 1 17 -21 9
-23 -9 -29 -6 -20 10 10 15 4 19 -17 11 -17 -7 -48 0 -68 16 -35 26 -35 28 8
28 56 1 58 32 5 61 -27 15 -40 15 -40 1 0 -12 11 -21 25 -22 14 0 7 -10 -14
-23 -29 -17 -41 -17 -47 1 -4 13 -14 19 -23 14 -23 -14 -261 69 -261 91 0 10
14 18 31 18 17 0 26 -8 20 -19 -7 -11 12 -12 51 0 79 22 96 38 46 42 -21 2
-60 5 -88 7 -27 2 -63 9 -80 14 -16 5 -23 6 -15 1 23 -13 18 -65 -6 -65 -12 0
-15 10 -8 22 10 15 0 18 -31 8 -26 -8 -40 -7 -34 4 7 10 -12 15 -42 11 -30 -4
-76 2 -104 14 -45 20 -42 21 27 13 65 -9 73 -6 52 19 -24 30 -106 22 -153 -15
-43 -34 -67 3 -30 46 33 38 173 39 204 1z m-353 -8 c-8 -13 7 -17 42 -10 30 5
47 3 38 -6 -20 -18 -307 0 -307 20 0 8 54 15 120 16 78 0 115 -6 107 -20z
m1393 -456 c0 -12 -10 -15 -23 -7 -16 9 -18 5 -7 -14 40 -70 78 -98 118 -87
30 8 34 6 15 -7 -23 -16 -21 -23 10 -41 20 -12 26 -22 12 -22 -14 -1 -25 -11
-25 -22 0 -12 10 -15 23 -7 14 9 18 5 9 -9 -21 -33 38 -85 82 -71 34 11 35 10
0 -12 -48 -31 -189 68 -155 109 24 28 -48 109 -74 83 -8 -9 3 -28 24 -44 21
-15 30 -28 20 -27 -31 1 -89 52 -89 77 0 14 9 19 20 12 30 -19 24 9 -10 43
-41 41 -38 67 10 67 22 0 40 -10 40 -21z m402 -479 c10 0 18 -10 18 -21 0 -12
-11 -15 -25 -6 -14 8 2 -17 35 -56 36 -43 74 -69 96 -65 22 4 42 -11 53 -38
20 -53 7 -75 -20 -33 -16 25 -18 24 -19 -4 0 -81 -61 -54 -122 54 -34 60 -70
109 -80 109 -10 0 -18 10 -18 21 0 12 11 15 25 6 15 -8 12 1 -5 23 -27 34 -27
36 7 24 20 -8 45 -14 55 -14z m75 -365 c-4 -5 7 -25 23 -46 27 -33 27 -35 -5
-23 -29 11 -34 4 -27 -35 16 -87 -95 -167 -411 -297 -121 -50 -250 -119 -297
-160 -46 -39 -135 -95 -197 -124 -62 -30 -157 -80 -210 -113 -54 -33 -110 -55
-126 -49 -38 15 -231 -31 -263 -62 -15 -14 -37 -26 -50 -26 -14 0 -12 9 6 20
26 17 26 19 -1 20 -80 0 -104 -48 -50 -99 30 -28 51 -37 51 -22 0 14 13 20 28
15 15 -6 46 6 69 27 44 42 103 52 103 18 0 -21 -33 -39 -92 -47 -19 -3 -41
-21 -47 -40 -17 -49 -31 -45 -128 35 -74 60 -97 68 -179 64 -91 -6 -173 79
-100 104 55 18 98 63 48 51 -35 -9 -45 -5 -38 16 5 15 27 29 48 29 21 1 79 21
128 45 50 24 105 43 124 44 18 0 39 8 45 18 6 10 71 42 146 71 74 30 241 99
370 153 129 54 345 144 480 200 135 57 254 108 265 115 78 48 310 127 287 98z
m110 -84 c-5 -15 0 -33 12 -40 12 -8 16 -24 8 -36 -9 -14 -2 -17 18 -10 19 8
37 0 44 -21 11 -28 16 -29 31 -4 15 24 23 25 43 5 20 -20 20 -25 0 -25 -14 0
-19 -10 -11 -23 10 -16 3 -20 -21 -10 -26 10 -32 6 -24 -16 6 -16 1 -36 -11
-43 -13 -9 -17 -5 -8 9 8 13 4 23 -8 23 -26 0 -109 177 -92 195 6 6 0 26 -13
43 -22 28 -21 29 9 6 18 -15 29 -39 23 -53z m-2189 -1256 c1 14 12 25 24 25
13 0 18 -18 12 -40 -6 -23 0 -41 13 -42 15 -1 15 -4 -2 -11 -14 -6 -25 -46
-25 -94 -1 -130 -32 -157 -60 -52 -17 63 -18 90 -2 95 12 4 22 16 22 27 0 11
-11 16 -25 11 -14 -5 -40 4 -58 20 -26 23 -43 24 -75 7 -50 -27 -54 -58 -11
-89 28 -21 27 -28 -13 -63 -29 -25 -40 -28 -30 -9 8 17 -41 -28 -110 -100 -69
-71 -118 -119 -110 -105 26 44 2 27 -79 -58 l-79 -83 80 58 80 57 -80 -92
c-44 -50 -128 -151 -186 -224 -58 -73 -117 -130 -130 -128 -13 3 -21 -10 -18
-29 7 -45 -213 -220 -259 -205 -19 6 -39 1 -46 -10 -8 -13 1 -16 23 -9 20 7 9
-7 -24 -30 -33 -23 -67 -42 -75 -42 -8 0 -89 -35 -180 -78 -91 -43 -198 -85
-239 -92 -114 -22 -225 -64 -194 -74 15 -5 -32 -9 -105 -8 -73 1 -130 -4 -125
-11 4 -7 -18 -22 -50 -33 -32 -11 -80 -40 -108 -64 -28 -24 -58 -44 -67 -44
-9 0 -34 -9 -54 -20 -29 -15 -35 -13 -29 6 5 15 52 48 104 74 52 26 91 52 85
58 -15 14 -228 -110 -240 -140 -6 -15 -10 -12 -11 7 -5 94 172 181 585 288
305 80 443 125 513 168 l50 31 -40 -47 c-34 -41 -25 -38 55 16 52 36 95 74 95
85 0 11 8 15 18 9 24 -15 146 106 302 299 143 175 301 340 440 457 106 89 66
75 -50 -18 -115 -93 -214 -149 -260 -148 -35 0 -33 6 19 48 32 27 64 47 70 45
25 -6 119 58 244 169 74 64 143 117 155 117 12 0 22 18 22 40 0 23 13 40 31
40 59 0 11 34 -50 36 -48 1 -74 -16 -126 -81 -134 -168 -241 -261 -270 -232
-14 14 -25 13 -34 -1 -7 -12 -4 -22 8 -22 11 0 5 -16 -14 -37 -19 -20 -46 -32
-60 -27 -14 4 -25 -3 -25 -17 0 -14 -5 -20 -12 -14 -18 18 12 97 32 85 10 -6
31 8 47 32 16 23 38 37 48 31 25 -16 95 52 159 153 106 169 183 204 333 148
38 -14 61 -14 70 0 27 41 73 40 86 -2 7 -23 14 -31 15 -17z m-331 -520 c-30
-51 -167 -218 -167 -205 0 26 155 230 175 230 4 0 1 -11 -8 -25z m-297 -253
c-111 -162 -242 -316 -257 -302 -6 6 21 47 60 90 39 44 86 103 104 130 63 97
173 236 181 229 4 -4 -36 -70 -88 -147z m-343 -347 c-10 -17 -3 -16 20 3 19
15 39 23 44 17 6 -5 -27 -38 -74 -73 -59 -43 -91 -56 -106 -41 -25 25 25 63
58 44 12 -6 14 -4 6 5 -16 18 19 70 49 70 10 0 12 -11 3 -25z m-459 -31 c-41
-35 -238 -94 -648 -195 -116 -28 -219 -60 -229 -70 -10 -10 -33 -19 -50 -18
-95 2 483 190 704 228 41 7 113 30 160 51 105 48 117 49 63 4z m284 -116 c3
-18 0 -27 -6 -21 -6 6 -24 -2 -40 -18 -16 -16 -39 -29 -52 -28 -15 0 -12 10 7
25 17 13 38 41 46 62 15 41 38 30 45 -20z m-159 -82 c-22 -22 -277 -84 -343
-83 -36 0 8 19 110 46 176 48 257 61 233 37z m2520 -257 c30 -77 -56 -245
-118 -232 -8 2 -15 -6 -15 -17 0 -11 -13 -20 -30 -20 -23 0 -25 10 -8 55 11
30 19 55 17 55 -2 0 16 43 41 95 45 95 91 122 113 64z m-3733 -35 c0 -30 -138
-133 -151 -113 -9 16 -7 20 6 12 12 -8 27 3 34 24 7 20 32 47 56 59 53 25 55
26 55 18z"/>
<path d="M3927 7547 l-57 -27 66 10 c36 5 61 2 56 -7 -10 -16 60 -18 76 -2 29
30 -88 51 -141 26z"/>
<path d="M2050 4035 c-70 -72 -72 -77 -18 -39 68 47 118 100 106 113 -5 5 -45
-29 -88 -74z"/>
<path d="M5671 6979 c37 -72 9 -128 -54 -108 -45 14 -49 -16 -7 -51 32 -27 3
-91 -31 -69 -9 5 -22 1 -28 -9 -6 -11 -2 -25 10 -33 12 -7 17 -25 12 -39 -9
-22 2 -22 57 1 48 20 69 22 75 5 5 -16 18 -16 44 -2 24 14 29 25 14 34 -13 8
-23 8 -23 0 0 -8 -18 2 -40 22 -68 61 -44 78 30 21 64 -48 103 -34 52 20 -10
10 -35 73 -56 139 -20 66 -48 122 -62 125 -18 4 -16 -12 7 -56z"/>
<path d="M5820 6950 c0 -16 -13 -30 -29 -30 -18 0 -25 -12 -18 -30 6 -16 19
-25 28 -20 24 15 33 -51 17 -127 -9 -42 -44 -91 -94 -135 -59 -50 -77 -79 -70
-108 9 -32 17 -36 38 -18 39 32 88 7 89 -46 l1 -46 31 44 c25 36 39 40 79 25
48 -18 69 6 27 32 -27 16 -67 111 -61 144 2 14 -6 25 -17 25 -12 0 -21 10 -21
21 0 12 8 16 18 10 10 -6 16 5 13 24 -9 54 48 154 73 129 15 -15 12 -31 -11
-54 -18 -18 -33 -43 -33 -56 1 -17 6 -16 17 2 10 15 31 20 53 11 21 -8 32 -6
25 5 -6 10 20 19 57 19 71 2 104 19 80 43 -7 8 -32 3 -55 -11 -22 -14 -46 -21
-52 -14 -7 6 0 11 14 11 20 0 21 6 3 28 -13 15 -21 35 -18 45 6 18 -9 27 -45
27 -12 0 -16 -9 -9 -20 7 -11 -1 -15 -16 -9 -16 6 -39 33 -51 60 -25 54 -63
66 -63 19z"/>
<path d="M6010 6720 c-7 -11 -32 -21 -56 -22 -34 -2 -36 -5 -9 -12 47 -12 45
-59 -4 -71 -28 -8 -35 -22 -27 -54 7 -27 22 -39 40 -32 16 6 49 11 73 12 38 0
39 3 11 25 -40 31 -26 74 24 74 45 0 51 36 8 53 -16 6 -25 19 -19 29 6 10 2
18 -9 18 -11 0 -25 -9 -32 -20z"/>
<path d="M2873 6310 c-9 -23 3 -30 48 -30 63 0 79 28 27 48 -48 18 -63 15 -75
-18z"/>
<path d="M2985 6235 c5 -14 -17 -55 -48 -91 -42 -49 -57 -87 -58 -150 -2 -116
-30 -185 -46 -114 -35 152 -55 285 -45 295 7 6 12 -3 12 -20 0 -18 7 -37 15
-42 8 -5 15 21 15 57 0 53 -6 63 -30 50 -60 -32 -105 -99 -94 -139 6 -26 2
-36 -11 -28 -15 9 -17 1 -6 -25 34 -86 37 -101 12 -68 -19 25 -22 22 -17 -18
3 -28 -6 -52 -22 -58 -16 -5 -22 0 -15 12 7 11 3 24 -9 28 -16 5 -16 28 -2 82
16 58 15 74 -6 74 -16 0 -22 -15 -16 -38 5 -21 0 -44 -12 -51 -12 -7 -22 0
-22 17 0 49 -95 63 -141 21 -21 -19 -39 -47 -39 -62 0 -15 -11 -45 -24 -67
-21 -32 -18 -48 16 -93 49 -66 88 -82 88 -37 0 18 9 27 20 20 11 -7 20 10 20
39 0 28 -10 51 -22 51 -14 0 -17 20 -9 53 9 35 4 59 -13 69 -17 11 -11 15 19
13 25 -2 45 -14 45 -28 0 -13 6 -39 13 -59 11 -26 7 -30 -15 -17 -23 14 -24
11 -3 -15 19 -23 21 -45 5 -87 -25 -65 -14 -109 27 -109 16 0 34 -13 40 -30
30 -79 66 -28 57 80 -5 61 -1 110 9 110 10 0 21 -25 23 -55 16 -180 58 -240
161 -226 15 2 44 -12 65 -31 28 -25 45 -29 60 -14 27 27 -7 96 -61 126 -25 13
-36 35 -31 62 7 32 3 37 -18 20 -14 -12 -32 -16 -39 -8 -18 17 -17 47 2 44 40
-7 60 6 81 51 12 27 15 54 6 60 -21 13 36 191 62 191 10 0 13 8 7 19 -6 10 -2
24 9 31 11 7 15 21 9 32 -7 10 17 29 51 41 47 16 57 27 37 39 -42 27 -122 22
-112 -7z m-184 -377 c26 -48 14 -68 -30 -51 -33 13 -43 93 -12 93 11 0 30 -19
42 -42z"/>
<path d="M3145 6207 c-14 -6 -20 -19 -13 -29 6 -11 -21 -55 -60 -99 -73 -80
-93 -139 -47 -139 47 1 85 39 85 84 0 26 18 54 45 67 25 12 39 29 32 36 -8 7
-9 13 -3 13 6 0 23 -15 39 -34 15 -18 17 -27 4 -20 -16 9 -20 1 -13 -26 8 -29
1 -40 -27 -40 -30 -1 -32 -4 -8 -19 16 -10 37 -14 46 -8 9 6 30 0 46 -14 20
-17 29 -17 29 -1 0 12 -8 22 -18 22 -27 0 -46 65 -24 79 29 17 13 91 -20 94
-63 6 -67 8 -38 27 34 22 -5 27 -55 7z"/>
<path d="M3429 5135 c-25 -27 40 -115 85 -115 42 0 -39 -236 -93 -269 -35 -22
-24 -56 14 -42 28 11 30 8 10 -12 -14 -14 -25 -38 -25 -54 0 -17 16 -7 41 24
23 29 36 61 30 71 -6 10 -4 22 5 25 19 8 104 187 104 219 0 12 15 48 34 79 19
32 30 61 25 66 -26 22 -211 29 -230 8z"/>
<path d="M3700 4261 c-25 -33 -61 -65 -81 -71 -19 -6 -40 -24 -46 -39 -8 -22
4 -21 66 3 57 23 80 46 96 98 26 83 23 84 -35 9z"/>
<path d="M3620 3969 c0 -17 -8 -26 -18 -20 -9 6 -22 -7 -28 -29 -13 -50 -4
-50 46 0 43 43 52 80 20 80 -11 0 -20 -14 -20 -31z"/>
<path d="M4010 3940 c-7 -11 -6 -30 1 -42 16 -25 -89 -141 -115 -126 -9 6 -15
-1 -11 -16 3 -14 -5 -24 -17 -22 -12 2 -21 -9 -21 -24 0 -46 -114 -165 -167
-175 -34 -6 -23 -10 32 -12 78 -3 88 4 210 142 70 80 141 157 158 171 26 24
26 25 0 12 -22 -11 -21 -5 5 25 49 56 47 104 -2 60 -45 -41 -71 -43 -56 -3 13
34 2 40 -17 10z"/>
<path d="M2472 3808 c-14 -36 48 -131 114 -178 43 -30 41 -32 -117 -178 -136
-125 -173 -173 -240 -315 -139 -294 -107 -757 55 -808 61 -20 116 53 58 74
-22 8 -50 34 -62 57 -13 25 -35 38 -52 32 -19 -7 -28 4 -28 38 0 29 10 46 25
43 14 -4 18 -3 10 2 -22 12 -19 80 4 94 11 7 14 27 7 45 -11 29 -15 28 -28 -5
-9 -23 -16 22 -16 111 -1 100 5 140 17 121 22 -35 29 -21 50 98 16 96 86 191
176 241 73 41 93 70 58 83 -10 4 28 52 83 107 55 55 94 90 87 77 -7 -13 -3
-27 9 -31 14 -5 10 -18 -10 -35 -29 -23 -31 -22 -19 9 9 25 6 32 -10 22 -12
-8 -23 -23 -23 -35 0 -26 -52 -78 -65 -65 -6 5 -15 -4 -22 -21 -14 -37 -4 -38
52 -8 l42 22 -43 -54 c-53 -68 -73 -165 -47 -234 14 -37 13 -59 -3 -76 -19
-18 -16 -30 11 -49 19 -15 48 -64 65 -111 36 -103 120 -207 173 -215 22 -3 34
2 28 12 -6 11 7 25 29 32 52 17 53 9 -43 251 -77 196 -93 291 -65 384 19 63
-27 37 -50 -28 -31 -88 -27 -149 18 -285 49 -144 49 -138 0 -112 -22 12 -40
34 -40 50 0 15 -15 36 -34 47 -38 22 -52 294 -15 319 11 8 20 28 20 45 -1 32
129 159 162 159 9 0 5 -8 -11 -18 -20 -13 -9 -24 44 -43 45 -17 76 -43 83 -71
6 -24 16 -61 22 -81 7 -22 -1 -17 -20 13 -49 76 -22 -125 30 -225 45 -89 23
-102 -27 -16 -38 63 -109 66 -82 3 7 -17 33 -83 56 -146 69 -183 68 -184 114
114 14 88 36 178 49 200 14 22 23 70 20 106 -3 40 4 62 17 57 12 -4 19 -19 16
-33 -12 -54 13 -83 54 -61 63 33 99 -27 50 -85 -71 -83 -90 -132 -68 -173 14
-27 13 -43 -3 -53 -13 -8 -18 -6 -11 5 6 10 3 32 -7 48 -14 22 -19 18 -21 -21
l-2 -50 -18 50 -17 50 8 -50 c4 -27 12 -68 17 -90 4 -22 4 -29 0 -15 -17 48
-46 25 -46 -35 0 -54 5 -59 48 -49 28 7 54 2 63 -12 9 -16 7 -20 -6 -12 -12 7
-54 -6 -94 -29 -39 -23 -83 -38 -98 -32 -17 7 -36 -23 -56 -88 l-30 -98 116 0
c126 0 122 -4 125 130 1 33 13 61 27 62 14 2 32 5 40 8 8 3 22 4 30 2 8 -1 15
12 15 29 0 17 -9 26 -20 19 -39 -24 -19 24 25 62 36 31 39 31 17 3 -19 -25
-20 -35 -3 -35 15 0 19 -15 10 -43 -9 -29 -6 -38 10 -28 13 8 20 34 17 58 -4
25 4 41 18 38 14 -2 21 7 16 20 -4 14 19 46 52 72 l60 48 -7 -48 c-4 -26 -18
-68 -32 -93 -14 -25 -22 -57 -17 -70 12 -34 -40 -117 -103 -163 -35 -26 -44
-28 -27 -7 21 26 20 33 -6 43 -18 7 -36 0 -43 -17 -6 -17 -25 -30 -41 -30 -20
0 -27 -13 -21 -39 6 -22 -1 -43 -17 -49 -33 -13 -15 -72 22 -72 14 0 31 14 38
31 28 75 51 -5 47 -163 -4 -141 0 -168 25 -162 17 3 27 19 23 35 -19 84 22
347 47 298 44 -88 52 -153 20 -179 -17 -14 -29 -49 -28 -77 0 -29 6 -42 11
-28 6 14 19 20 29 14 10 -6 18 -3 18 8 0 11 -11 24 -25 30 -38 16 45 76 87 62
26 -8 38 5 48 55 8 36 36 110 62 163 32 64 39 94 22 87 -34 -13 -48 435 -14
456 11 7 20 0 20 -15 0 -15 21 -27 50 -27 28 0 50 7 50 16 0 9 -9 16 -20 16
-11 0 -20 14 -20 30 0 17 8 30 17 30 9 0 17 11 18 25 1 14 9 47 17 73 8 29 7
44 -5 37 -17 -11 -24 17 -28 110 -2 51 -24 55 -67 12 -34 -33 -35 -37 -5 -37
33 0 42 -33 23 -83 -9 -23 -185 -35 -230 -16 -5 2 -18 2 -28 0 -10 -2 -24 4
-30 13 -7 9 -29 25 -50 37 -34 19 -46 63 -15 56 7 -2 43 -8 80 -14 37 -5 82
-24 101 -42 45 -40 60 -39 53 4 -5 39 -91 93 -179 114 -49 11 -55 8 -43 -22 7
-20 7 -29 -1 -21 -8 8 -30 0 -49 -16 -46 -43 -99 11 -59 60 17 21 18 30 2 30
-12 0 -22 -7 -22 -16 0 -8 -26 -25 -57 -37 -59 -22 -203 17 -203 55 0 9 -34
34 -75 56 -68 35 -265 222 -234 222 8 0 3 14 -11 30 -32 39 -53 38 -68 -2z
m1004 -818 c-9 -33 -16 -82 -16 -110 0 -128 -72 -269 -127 -249 -26 11 -23 20
18 56 49 43 105 260 112 433 l2 70 14 -70 c7 -38 6 -97 -3 -130z m-97 128 c0
16 7 23 15 15 7 -7 -15 -41 -50 -76 -35 -34 -64 -55 -64 -47 0 8 -18 -7 -39
-33 l-40 -47 0 46 c-1 26 8 41 19 34 11 -7 20 -3 20 8 0 11 -16 30 -35 42 -28
17 -22 19 30 9 64 -12 92 15 40 39 -14 6 -5 7 20 0 34 -8 45 -2 46 26 2 32 4
32 19 -4 10 -24 18 -28 19 -12z m-367 -402 c-31 -44 -92 -67 -92 -35 0 14 90
75 116 78 4 1 -8 -19 -24 -43z m438 -175 c-39 -76 -79 -63 -45 15 13 30 33 60
45 68 34 24 34 -18 0 -83z"/>
<path d="M3513 3715 c-26 -36 -30 -38 -19 -6 13 38 12 38 -39 0 -57 -43 -83
-143 -48 -187 29 -36 -55 4 -115 56 -22 17 -32 21 -24 7 8 -14 5 -25 -7 -25
-59 0 -8 -42 89 -73 61 -19 110 -42 110 -51 0 -9 9 -16 20 -16 11 0 20 14 20
30 0 17 9 30 20 30 11 0 20 10 20 22 0 16 -10 15 -30 -2 -17 -14 -36 -21 -42
-15 -15 15 61 186 90 204 26 16 30 71 4 71 -9 0 -32 -20 -49 -45z"/>
<path d="M3863 3466 c-66 -27 -67 -29 -30 -64 32 -32 38 -32 44 -4 4 17 22 42
40 55 51 37 20 44 -54 13z"/>
<path d="M2393 3143 c-29 -64 -60 -152 -71 -195 l-18 -78 -3 70 c-3 67 -4 68
-23 21 -14 -36 -10 -95 14 -210 19 -89 35 -182 36 -207 2 -34 11 -44 37 -37
19 5 35 1 35 -9 0 -31 67 -19 162 29 51 26 112 52 135 58 54 14 56 55 3 55
-22 0 -40 13 -40 29 0 39 -26 52 -61 30 -23 -15 -24 -22 -3 -36 21 -13 20 -22
-5 -42 -20 -17 -31 -18 -31 -4 0 12 -14 17 -30 10 -24 -9 -29 4 -24 69 5 64
-1 83 -28 90 -38 10 -51 349 -15 418 10 19 10 38 0 44 -10 6 -41 -41 -70 -105z
m26 -377 c-52 -12 -81 -78 -59 -137 11 -28 19 -62 19 -75 -2 -30 -49 96 -67
178 -13 60 -13 60 62 50 42 -5 62 -13 45 -16z"/>
<path d="M3732 3207 c-44 -24 -51 -35 -30 -48 17 -11 33 -7 43 11 9 16 32 38
51 49 56 33 -1 22 -64 -12z"/>
<path d="M4629 3135 c8 -25 23 -81 35 -125 11 -44 36 -94 55 -110 19 -17 30
-43 25 -58 -5 -16 0 -22 12 -15 12 8 26 -17 33 -62 7 -41 30 -97 52 -125 48
-63 49 -36 1 90 -71 190 -82 211 -112 223 -23 9 -25 18 -9 38 16 19 10 47 -20
107 -45 88 -95 114 -72 37z"/>
<path d="M4105 2997 c-13 -13 -40 -25 -59 -26 -20 -2 -92 -16 -160 -31 l-123
-28 -20 -116 c-12 -63 -39 -156 -61 -206 -47 -108 -45 -108 108 -20 66 39 197
107 290 152 94 45 186 90 205 100 62 33 84 18 195 -137 136 -188 155 -223 214
-384 67 -186 123 -271 318 -490 l174 -195 -88 17 c-183 36 -650 14 -741 -34
-22 -12 -46 -17 -52 -11 -6 7 1 12 17 12 23 1 23 4 -2 20 -136 88 -1060 -52
-1036 -156 11 -47 -52 -180 -80 -169 -19 7 -25 4 -17 -10 8 -12 4 -28 -8 -35
-36 -23 -2 182 50 296 178 391 231 512 231 529 0 11 13 31 29 44 15 13 28 39
27 57 -1 19 19 86 43 150 25 64 40 122 34 128 -6 6 -17 -13 -24 -42 -7 -28
-20 -47 -29 -42 -9 5 -21 -13 -28 -41 -8 -30 -22 -45 -35 -37 -15 9 -20 -3
-13 -37 8 -40 3 -49 -20 -40 -18 7 -25 3 -18 -9 14 -22 -22 -66 -123 -150 -67
-57 -118 -155 -144 -276 -88 -412 -120 -585 -110 -596 24 -24 91 -23 86 1 -8
42 125 40 340 -4 251 -51 251 -51 318 7 l56 48 -50 -3 c-54 -3 -59 49 -10 98
48 49 135 44 117 -6 -8 -23 4 -18 36 16 64 69 237 189 293 203 71 19 53 -17
-35 -69 -44 -27 -74 -55 -66 -63 8 -8 -1 -8 -20 -1 -23 9 -34 3 -34 -18 0 -18
-25 -45 -55 -62 -30 -16 -48 -30 -40 -30 17 -1 -22 -50 -124 -154 -58 -61 -65
-77 -45 -109 33 -52 30 -79 -6 -65 -22 8 -27 2 -18 -21 7 -17 2 -32 -10 -32
-12 0 -22 9 -22 19 0 10 -54 30 -120 43 -66 13 -120 31 -120 41 0 9 -36 17
-80 17 -58 0 -80 -8 -80 -30 0 -16 -14 -30 -31 -30 -25 0 -26 -5 -5 -28 16
-18 33 -22 45 -10 29 28 64 22 103 -17 19 -19 81 -44 136 -55 89 -18 102 -26
103 -70 1 -27 9 -66 18 -86 26 -58 -18 -86 -75 -49 -57 38 -225 66 -240 41 -6
-10 -131 -20 -278 -23 -146 -3 -301 -14 -344 -26 -69 -18 -93 -13 -216 44 -76
35 -143 59 -149 53 -16 -16 38 -91 72 -101 17 -4 -5 -4 -48 0 -44 5 -86 18
-93 29 -6 12 -56 18 -110 15 -90 -6 -98 -3 -100 39 -2 35 5 43 30 34 52 -21
182 -26 182 -7 0 9 -25 17 -55 17 -39 1 -47 6 -28 18 44 27 -16 40 -82 17 -31
-11 -69 -14 -85 -8 -17 7 -30 2 -30 -9 0 -11 -8 -15 -18 -9 -21 13 -19 49 5
86 10 17 2 25 -25 25 -22 0 -45 9 -52 20 -24 38 543 33 571 -5 25 -33 308 -27
314 7 8 36 -193 67 -300 47 -60 -11 -77 22 -20 37 19 5 -13 10 -71 12 -59 1
-102 -5 -97 -13 5 -8 -73 -14 -174 -13 -217 1 -231 3 -195 26 33 21 11 64 -26
50 -15 -6 -32 4 -39 21 -6 17 -25 31 -41 31 -17 0 -37 13 -46 29 -11 19 -26
23 -45 12 -23 -15 -24 -23 -2 -49 14 -17 33 -27 42 -21 36 22 55 -58 25 -105
-19 -29 -22 -46 -8 -46 36 0 25 -46 -30 -127 -52 -76 -93 -92 -46 -18 42 68
10 114 -51 74 -28 -19 -45 -42 -39 -52 20 -32 -147 -177 -187 -164 -32 11 -32
10 1 -16 55 -43 24 -97 -56 -97 -118 0 -193 23 -181 55 9 22 1 27 -30 19 -31
-8 -36 -5 -21 13 23 28 150 43 134 16 -7 -11 11 -17 39 -16 90 5 62 137 -30
144 -38 3 -73 15 -77 27 -4 12 -34 22 -67 22 -40 0 -57 9 -51 25 5 14 19 23
32 20 12 -3 22 3 22 13 0 10 -32 18 -71 18 -56 0 -69 -7 -60 -31 14 -37 -25
-90 -54 -72 -13 8 -15 3 -7 -10 8 -13 24 -18 36 -11 12 8 16 -1 8 -24 -6 -21
1 -61 16 -90 25 -49 24 -52 -15 -50 -46 2 -98 89 -97 159 6 229 9 236 154 328
121 77 459 180 490 150 6 -6 -1 -14 -15 -19 -45 -17 -29 -86 20 -86 37 -1 40
-4 15 -22 -25 -18 -24 -20 7 -10 20 7 41 12 46 12 5 0 4 9 -3 20 -7 11 8 21
34 22 25 0 35 6 21 11 -14 6 -25 19 -25 29 0 31 111 20 201 -20 47 -21 97 -34
112 -28 15 6 27 1 27 -11 0 -11 18 -26 39 -33 26 -8 35 -23 27 -44 -9 -23 -5
-29 16 -21 224 94 288 116 361 127 48 7 104 28 125 46 22 17 32 21 24 7 -25
-43 19 -27 66 23 32 34 42 62 33 90 -9 26 -5 42 9 42 13 0 16 -11 7 -25 -12
-20 -8 -20 16 0 58 47 56 -1 -4 -76 l-59 -75 69 6 c38 4 89 13 113 21 33 10
39 7 26 -14 -9 -15 -17 -40 -17 -57 -1 -18 -17 -28 -41 -25 -38 6 -160 5 -235
-1 -19 -1 -35 -10 -35 -18 0 -9 16 -17 35 -18 19 -1 80 -5 135 -9 55 -4 122
-8 150 -10 27 -1 57 -13 66 -26 8 -13 10 4 3 37 -8 41 -6 51 7 33 12 -18 23
-20 32 -6 7 11 -1 28 -17 37 -33 19 -45 122 -25 216 8 33 19 119 25 190 6 72
16 148 22 170 7 30 5 33 -10 12 -11 -16 -30 -119 -44 -230 -24 -195 -59 -308
-52 -169 2 47 -5 65 -24 61 -40 -8 -11 140 58 290 31 68 60 149 65 180 4 31
13 70 20 86 27 67 54 194 54 254 0 35 9 69 20 76 12 7 11 28 -4 56 -12 24 -29
58 -36 74 -16 33 -99 42 -102 10 -1 -11 -11 -32 -23 -46 -16 -20 -11 -29 22
-37 24 -7 43 -19 43 -27 0 -28 -59 -65 -87 -54 -16 6 -38 1 -50 -11 -15 -15
-30 -14 -52 4 -26 22 -31 20 -31 -7 0 -19 16 -32 40 -32 22 0 40 -9 40 -20 0
-11 23 -20 50 -20 54 0 60 -13 30 -60 -14 -23 -64 -30 -214 -32 l-196 -2 -103
-103 c-56 -57 -110 -103 -119 -103 -8 0 -34 -17 -57 -39 -77 -72 -124 -7 -66
93 40 71 95 95 95 42 0 -11 -16 -14 -35 -7 -27 10 -30 8 -11 -11 19 -19 31
-19 55 1 33 27 44 71 13 52 -10 -6 -23 3 -30 20 -6 17 -3 26 7 20 22 -14 48
61 31 89 -7 11 -3 20 9 20 11 0 21 22 21 49 0 27 12 56 27 65 17 10 22 31 14
55 -14 37 -121 -82 -121 -135 0 -58 -161 -330 -253 -428 -60 -64 -172 -199
-249 -301 l-139 -184 -185 7 c-404 16 -760 -117 -807 -301 -18 -72 12 -228 46
-241 16 -6 25 -23 19 -37 -6 -18 25 -38 93 -61 56 -18 182 -73 279 -122 137
-69 215 -94 346 -112 129 -17 173 -31 181 -57 16 -52 58 -60 359 -77 154 -9
343 -32 420 -51 116 -30 244 -36 750 -40 496 -4 644 -11 790 -41 208 -41 818
-50 920 -12 51 18 39 20 -80 14 l-140 -8 115 18 c64 10 208 45 320 78 175 50
252 60 525 70 360 13 553 47 676 119 46 27 147 82 224 122 491 254 578 477
281 721 -153 126 -505 199 -571 120 -14 -17 -62 -49 -108 -71 -225 -110 -254
-161 -112 -199 150 -41 61 -95 -121 -74 -54 7 -103 3 -110 -7 -6 -10 -2 -19
10 -19 28 0 27 -54 -2 -72 -15 -9 -18 -5 -7 12 11 17 8 21 -6 12 -12 -7 -28
-47 -35 -88 -27 -157 -51 -217 -115 -289 -37 -41 -77 -75 -89 -75 -12 0 -26
-11 -32 -25 -7 -19 -15 -18 -31 5 -18 25 -21 23 -22 -13 0 -23 -14 -48 -32
-55 -47 -18 -52 -15 -39 26 7 22 2 45 -13 54 -35 22 -97 25 -84 5 6 -10 -13
-17 -41 -17 -53 0 -73 -49 -26 -65 19 -7 19 -16 -3 -42 -21 -26 -34 -28 -55
-11 -16 14 -27 15 -27 3 0 -11 -16 -26 -35 -33 -19 -6 -47 -18 -62 -24 -21
-10 -25 5 -18 70 7 61 3 82 -18 82 -15 0 -27 14 -27 30 0 17 -9 30 -20 30 -11
0 -20 14 -20 30 0 17 -9 30 -20 30 -28 0 -25 -41 9 -106 16 -30 24 -68 18 -85
-6 -16 -1 -29 11 -29 12 0 22 -9 22 -20 0 -11 -28 -20 -61 -20 -41 0 -57 -8
-47 -23 8 -13 3 -18 -14 -13 -15 6 -55 1 -88 -10 -84 -28 -255 -29 -285 0 -37
35 -30 82 15 96 110 35 -51 106 -168 75 -89 -24 -112 -18 -112 27 0 17 -15 27
-35 24 -27 -5 -34 7 -31 49 2 30 -5 55 -15 55 -11 0 -19 -22 -19 -50 0 -27 -9
-50 -20 -50 -11 0 -20 9 -20 20 0 11 -9 20 -20 20 -11 0 -20 -12 -20 -28 0
-15 -19 -32 -42 -38 -54 -14 -30 -54 32 -54 67 0 110 -20 110 -52 0 -21 24
-26 97 -21 69 5 109 -3 139 -28 l43 -34 -62 -13 c-95 -19 -177 -14 -177 9 0
12 -10 15 -23 7 -14 -9 -6 -23 25 -41 l48 -27 -52 11 c-28 6 -82 15 -120 19
-37 3 -72 8 -78 11 -5 2 -17 3 -25 1 -8 -1 -15 7 -15 18 0 11 -20 19 -45 19
-43 -2 -43 -3 -5 -19 31 -13 32 -18 7 -19 -73 -3 -84 56 -14 76 47 14 55 21
27 24 -51 5 -53 5 -95 -12 -24 -9 -35 -4 -35 17 0 16 14 35 30 41 17 7 30 22
30 35 0 12 -14 17 -33 10 -26 -10 -28 -7 -9 15 18 22 16 31 -7 40 -55 21 -32
53 38 53 67 0 121 40 75 55 -36 12 -30 138 7 153 17 6 26 21 19 33 -19 30 25
76 150 156 61 38 115 75 120 83 6 7 26 19 46 26 20 8 32 22 25 32 -6 9 5 22
24 27 19 6 53 18 75 26 40 16 40 16 0 -31 l-40 -46 44 11 c35 8 54 -3 85 -52
26 -41 40 -51 41 -30 0 19 -10 37 -23 41 -16 6 -12 25 12 62 38 58 83 74 63
22 -7 -19 5 -46 33 -69 52 -43 84 -50 63 -14 -8 14 6 5 30 -20 24 -25 52 -45
62 -45 26 0 -1 65 -39 94 -20 16 -22 25 -7 25 47 2 1 61 -46 61 -53 0 -59 21
-26 84 14 25 15 46 3 54 -32 21 -43 120 -12 108 15 -6 27 -17 27 -25 0 -8 14
-14 30 -14 17 0 30 7 30 16 0 10 -11 17 -25 17 -14 0 3 17 36 38 71 43 129 47
305 20 82 -12 138 -12 160 1 36 21 14 29 -59 22 -17 -1 -37 11 -44 28 -7 20
-39 32 -87 33 l-76 2 70 20 c234 67 535 -79 779 -379 l68 -85 46 43 c25 23 41
50 36 59 -11 17 114 124 132 114 7 -3 28 10 47 29 19 19 52 35 74 35 131 0 7
163 -201 266 -126 62 -431 93 -539 54 -20 -7 -74 79 -180 284 -84 162 -185
338 -224 391 -40 53 -79 117 -87 142 -8 26 -19 41 -25 36 -31 -31 201 -467
486 -913 20 -31 10 -25 -29 18 -95 106 -394 563 -426 652 -29 80 -85 107 -124
60 -9 -11 -12 0 -6 27 7 32 2 43 -15 36 -14 -5 -25 3 -25 19 0 15 8 28 18 28
66 0 -47 141 -188 234 -58 39 -77 64 -75 104 0 28 6 41 11 28 5 -13 23 -19 38
-13 18 7 29 -1 29 -21 0 -22 18 -32 60 -32 33 0 60 10 60 21 0 12 -11 15 -23
7 -16 -10 -20 -4 -11 18 7 18 3 38 -8 45 -12 7 -16 27 -9 43 8 23 2 27 -24 17
-114 -45 -210 -72 -220 -62 -7 6 -1 11 12 11 13 0 23 20 23 44 0 43 -1 43 -29
5 -17 -22 -30 -29 -30 -17 -1 25 -119 12 -157 -17 -30 -24 -88 39 -74 80 11
31 -15 32 -45 2z m-1265 -1013 c26 -12 27 -25 8 -84 -19 -58 -25 -63 -35 -30
-6 22 -8 4 -3 -40 5 -49 2 -69 -8 -52 -22 35 -51 -196 -32 -262 8 -31 7 -37
-6 -19 -14 20 -21 17 -29 -15 -14 -54 -47 -54 -61 0 -8 31 -3 38 18 30 17 -6
25 -4 19 6 -46 75 -472 102 -523 33 -12 -17 -30 -24 -39 -16 -10 8 -4 -2 12
-24 26 -35 26 -37 -5 -26 -25 10 -31 5 -22 -19 7 -18 4 -27 -6 -21 -10 6 -35
-24 -56 -66 -21 -43 -46 -73 -55 -67 -9 6 -37 -4 -61 -21 -116 -81 -64 25 128
260 126 154 204 207 385 258 86 25 138 55 190 110 69 74 120 92 181 65z m449
-133 c-14 -48 -41 -114 -59 -145 -35 -61 -34 -53 22 119 44 134 77 157 37 26z
m-1142 -115 c-20 -22 -55 -49 -77 -61 -29 -15 -25 -6 15 35 30 30 55 64 55 74
0 10 10 12 21 5 14 -8 9 -27 -14 -53z m3456 -96 c164 0 302 -46 367 -123 66
-79 64 -92 -30 -179 -44 -41 -80 -91 -80 -111 0 -23 -6 -28 -15 -15 -8 12 -40
28 -71 35 -30 8 -65 34 -76 59 -12 24 -61 75 -109 114 -77 60 -144 144 -89
110 36 -23 21 5 -40 70 -65 69 -83 127 -23 73 26 -24 73 -33 166 -33z m-1732
-162 c10 -15 20 -15 35 0 40 40 78 27 51 -16 -14 -22 -37 -33 -54 -27 -17 7
-24 3 -17 -8 7 -11 0 -20 -16 -20 -16 0 -24 7 -18 16 18 29 -59 17 -142 -22
-43 -21 -86 -33 -95 -28 -30 19 -95 24 -95 8 0 -9 -40 -30 -90 -46 -91 -30
-125 -9 -65 41 47 39 242 103 284 93 22 -5 68 -1 101 9 82 26 105 26 121 0z
m729 -13 c-99 -13 -103 -19 -59 -97 45 -80 -4 -164 -51 -88 -7 11 1 14 19 8
40 -16 40 26 1 65 -16 16 -30 20 -30 8 0 -11 -18 -21 -40 -21 -27 0 -40 13
-40 41 0 23 -9 36 -20 29 -11 -7 -20 -3 -20 9 0 13 20 17 50 9 62 -15 66 7 5
32 -36 15 -30 17 28 8 40 -6 78 -3 84 8 7 10 37 13 68 7 55 -12 55 -12 5 -18z
m-1983 -117 c22 -47 3 -128 -29 -128 -6 0 -5 8 1 18 13 21 -34 42 -92 42 -46
0 -142 -68 -123 -87 7 -7 -9 -13 -36 -13 -26 0 -66 -5 -88 -11 -62 -15 -104
20 -71 59 14 18 39 32 56 32 66 0 223 90 234 133 15 60 115 29 148 -45z m-323
39 c17 -45 -45 -87 -128 -87 -78 0 -89 42 -22 89 58 41 134 40 150 -2z m1025
-59 c-17 -44 -25 -50 -39 -28 -12 19 -7 41 14 65 43 47 52 34 25 -37z m1044
19 c51 -46 47 -76 -5 -40 -24 17 -55 25 -70 19 -29 -11 -39 17 -15 41 22 21
52 15 90 -20z m2224 -109 c36 -34 89 -48 126 -33 7 3 20 -16 30 -42 11 -30 28
-43 47 -36 16 6 28 5 27 -3 -2 -8 4 -30 12 -50 23 -52 -14 -83 -66 -56 -46 25
-74 0 -55 -49 6 -17 -7 -48 -28 -69 -48 -48 -51 -63 -10 -47 17 6 30 1 30 -11
0 -34 -78 -26 -118 13 -69 67 -66 121 10 146 63 20 94 59 48 59 -11 0 -20 15
-20 34 0 31 -2 31 -25 -1 -24 -33 -34 -33 -145 -4 -157 41 -154 42 -138 -44
13 -68 11 -72 -19 -48 -18 15 -45 23 -61 17 -17 -7 -32 4 -38 27 -6 21 -43 57
-83 81 l-73 43 46 50 c89 95 409 110 503 23z m-447 -326 c0 -107 -20 -124
-162 -137 -211 -20 -246 3 -187 122 34 68 49 75 83 41 16 -16 35 -15 69 4 40
21 129 49 182 56 8 1 15 -37 15 -86z m200 12 c6 -5 -1 -13 -14 -18 -19 -7 -19
-17 0 -48 19 -32 18 -43 -6 -60 -24 -16 -22 -18 11 -9 60 16 103 -65 69 -130
-43 -79 -123 -139 -186 -139 -34 0 -77 -14 -96 -32 -33 -29 -34 -28 -24 15 9
39 7 43 -15 22 -15 -14 -44 -25 -65 -25 -26 0 -35 -10 -27 -30 8 -21 -1 -30
-30 -30 -28 0 -38 9 -30 29 6 17 3 35 -8 42 -10 6 -19 -3 -19 -20 0 -17 -10
-31 -21 -31 -12 0 -16 -9 -9 -20 7 -12 -14 -19 -54 -18 -36 2 -51 7 -32 12 20
5 29 21 23 37 -7 17 1 29 19 29 19 0 27 13 21 35 -31 120 77 259 136 177 17
-23 135 23 183 71 19 21 29 37 21 37 -8 0 -4 11 9 24 13 13 24 45 24 70 0 44
79 51 120 10z m156 -48 c30 -30 31 -89 2 -108 -25 -15 -143 100 -124 120 21
21 97 13 122 -12z m-4502 -142 c46 -29 92 -158 63 -178 -21 -15 -21 -21 -2
-29 15 -6 24 -44 23 -94 0 -45 -6 -72 -11 -58 -6 14 -18 20 -28 15 -32 -20
-117 12 -106 40 19 51 -109 100 -155 58 -21 -19 -38 -26 -38 -16 0 10 -9 5
-20 -12 -17 -26 -19 -25 -20 3 0 19 -9 37 -20 40 -35 12 21 102 110 178 79 67
150 86 204 53z m1599 -144 c21 -44 19 -50 -17 -50 -27 0 -37 -10 -29 -29 6
-15 0 -33 -13 -40 -18 -8 -18 -14 1 -23 14 -6 25 -20 25 -31 0 -28 -53 -78
-67 -63 -7 6 -17 -1 -23 -17 -15 -39 -150 -24 -150 16 0 16 -10 23 -21 16 -12
-7 -17 -26 -11 -41 13 -33 -39 -38 -59 -6 -10 16 -18 15 -29 -2 -19 -30 -60
-9 -60 31 0 16 17 29 38 29 66 0 92 53 39 81 -33 18 -47 19 -53 2 -9 -28 -77
-30 -94 -3 -7 11 6 20 29 20 22 0 41 8 41 19 0 19 -62 45 -93 39 -9 -1 -33 -2
-52 0 -49 3 -44 42 5 42 22 0 40 10 40 22 0 12 -13 17 -30 11 -16 -7 -30 -3
-30 8 0 10 27 19 59 19 43 0 57 -8 49 -28 -8 -20 18 -29 106 -35 152 -11 364
8 331 29 -31 20 -13 56 21 43 13 -5 34 -32 47 -59z m-1249 -35 c14 -14 51 -36
81 -50 30 -13 55 -37 55 -52 0 -17 29 -34 68 -41 38 -7 73 -26 79 -43 14 -34
4 -36 -49 -8 -21 11 -49 14 -62 6 -16 -9 -11 -19 15 -29 31 -12 26 -15 -24
-17 -72 -1 -207 50 -207 79 0 11 -13 20 -28 20 -32 0 -58 82 -40 128 15 38 75
42 112 7z m523 -70 c179 -7 216 -65 41 -65 -132 0 -322 64 -238 80 33 7 65 7
70 1 6 -7 62 -14 127 -16z m53 -124 c28 -5 -56 -40 -97 -41 -38 0 -43 6 -26
27 19 22 60 27 123 14z"/>
<path d="M5524 1566 c11 -13 14 -33 7 -44 -6 -10 18 -40 54 -65 36 -25 77 -61
91 -81 15 -20 36 -36 48 -36 12 0 5 20 -16 45 l-38 45 50 -44 c80 -70 146 -76
209 -22 l56 48 -153 76 c-83 42 -147 84 -142 93 6 9 -34 15 -88 13 -74 -3 -93
-10 -78 -28z"/>
<path d="M6292 1237 c37 -43 37 -44 -2 -28 -129 52 -204 -16 -105 -94 48 -37
84 -46 66 -17 -6 9 16 28 49 42 69 29 76 60 23 107 -53 48 -76 40 -31 -10z"/>
<path d="M2575 2409 c-30 -17 -60 -52 -67 -79 -7 -28 -19 -46 -27 -41 -8 5
-16 -18 -17 -53 -1 -34 -11 -68 -22 -75 -11 -6 -13 -24 -4 -38 11 -18 23 -8
41 34 37 90 101 144 101 86 0 -24 -9 -43 -19 -43 -11 0 -34 -27 -51 -60 -18
-34 -22 -60 -11 -60 12 0 21 7 21 15 0 8 20 17 45 19 133 13 140 20 113 107
-47 151 -54 197 -31 207 13 5 14 9 3 10 -11 0 -45 -13 -75 -29z"/>
<path d="M4794 1341 c9 -35 2 -38 -67 -27 -55 8 -71 5 -57 -11 36 -38 251 -50
237 -13 -7 20 -25 27 -49 19 -29 -9 -38 -2 -38 30 0 22 -8 41 -18 41 -10 0
-14 -18 -8 -39z"/>
<path d="M5495 1327 c14 -6 21 -18 15 -27 -5 -9 8 -37 29 -63 22 -26 40 -36
40 -22 1 14 -10 25 -23 25 -18 0 -18 6 -1 23 25 25 -21 77 -65 75 -11 -1 -9
-6 5 -11z"/>
<path d="M1469 1201 c-70 -16 -149 -58 -119 -63 97 -15 110 -12 85 18 -21 27
-19 29 12 18 21 -8 54 -1 79 16 46 32 38 34 -57 11z"/>
<path d="M4784 1175 c-19 -23 -12 -51 32 -137 30 -59 67 -148 82 -197 14 -50
46 -110 69 -134 24 -25 43 -55 43 -68 0 -30 167 -123 193 -107 11 6 15 25 9
41 -12 29 71 31 100 1 16 -15 68 22 68 48 0 10 -20 19 -45 20 -41 2 -41 4 -5
12 91 23 115 75 45 98 -72 25 -122 9 -171 -54 -61 -76 -85 -73 -157 17 -72 89
-52 153 72 231 38 23 62 32 54 18 -27 -42 11 -26 59 26 119 129 277 54 277
-132 0 -131 28 -161 92 -101 47 43 -7 57 -59 15 -22 -17 -26 -15 -18 8 5 17
29 29 53 28 26 -1 44 11 44 30 1 19 10 12 23 -18 19 -42 23 -44 31 -14 10 42
-28 94 -69 94 -15 0 -23 8 -17 18 13 22 -69 182 -94 182 -9 0 -12 8 -6 18 6 9
-3 29 -19 42 -25 21 -30 18 -30 -13 -1 -30 -4 -32 -19 -8 -10 16 -14 39 -8 50
5 12 -4 4 -21 -17 -17 -21 -26 -46 -20 -55 6 -9 -3 -17 -19 -17 -16 0 -27 14
-26 32 2 24 -19 34 -87 39 -410 33 -432 33 -456 4z"/>
<path d="M3215 1126 c-132 -15 -80 -46 75 -46 87 0 150 8 150 20 0 11 -16 20
-35 20 -19 0 -53 4 -75 7 -22 4 -74 3 -115 -1z"/>
<path d="M1375 1050 c5 -27 22 -50 37 -50 16 0 28 -9 28 -20 0 -11 -24 -20
-53 -20 -74 0 -43 -24 41 -32 47 -4 72 4 80 24 6 17 4 25 -6 19 -30 -18 -44
52 -17 85 21 27 19 29 -20 19 -25 -6 -50 -3 -56 7 -23 36 -43 17 -34 -32z"/>
<path d="M4748 891 c-16 -40 -2 -96 25 -105 33 -11 46 110 13 123 -15 6 -32
-2 -38 -18z"/>
<path d="M3391 879 c8 -14 -20 -17 -87 -10 -84 10 -101 6 -108 -24 -10 -35
201 -55 233 -22 17 16 -9 77 -32 77 -11 0 -13 -9 -6 -21z"/>
<path d="M4025 853 c-71 -47 -89 -87 -24 -53 42 23 179 -11 179 -44 0 -33 36
-14 46 24 7 28 0 40 -22 40 -26 0 -25 5 7 29 22 17 30 31 19 33 -109 15 -147
10 -205 -29z"/>
<path d="M4372 754 c-64 -21 -67 -50 -7 -72 25 -9 45 -33 45 -54 0 -22 16 -40
40 -43 37 -6 37 -5 5 15 -21 13 -30 32 -21 46 8 13 15 38 15 54 1 47 79 35
101 -15 12 -28 37 -45 65 -45 25 0 45 -9 45 -19 0 -11 13 -15 28 -9 44 17 14
88 -38 88 -25 0 -56 13 -68 28 -29 35 -141 49 -210 26z"/>
<path d="M6712 556 c10 -15 4 -19 -17 -11 -33 13 -261 -68 -404 -144 -44 -22
-93 -41 -109 -41 -16 0 -23 -5 -17 -12 7 -7 47 0 89 14 42 14 83 24 92 22 10
-3 12 4 5 14 -7 11 4 19 24 19 204 -4 466 108 354 151 -20 7 -26 4 -17 -12z"/>
</g>
</svg>
