<svg xmlns="http://www.w3.org/2000/svg" viewBox="0 0 48 48" width="48" height="48"><title>logo github purple</title><g class="nc-icon-wrapper" fill="#7f5af0"><path fill-rule="evenodd" clip-rule="evenodd" fill="#7f5af0" d="M24,0.6c-13.3,0-24,10.7-24,24c0,10.6,6.9,19.6,16.4,22.8 c1.2,0.2,1.6-0.5,1.6-1.2c0-0.6,0-2.1,0-4.1c-6.7,1.5-8.1-3.2-8.1-3.2c-1.1-2.8-2.7-3.5-2.7-3.5c-2.2-1.5,0.2-1.5,0.2-1.5 c2.4,0.2,3.7,2.5,3.7,2.5c2.1,3.7,5.6,2.6,7,2c0.2-1.6,0.8-2.6,1.5-3.2c-5.3-0.6-10.9-2.7-10.9-11.9c0-2.6,0.9-4.8,2.5-6.4 c-0.2-0.6-1.1-3,0.2-6.4c0,0,2-0.6,6.6,2.5c1.9-0.5,4-0.8,6-0.8c2,0,4.1,0.3,6,0.8c4.6-3.1,6.6-2.5,6.6-2.5c1.3,3.3,0.5,5.7,0.2,6.4 c1.5,1.7,2.5,3.8,2.5,6.4c0,9.2-5.6,11.2-11,11.8c0.9,0.7,1.6,2.2,1.6,4.4c0,3.2,0,5.8,0,6.6c0,0.6,0.4,1.4,1.7,1.2 C41.1,44.2,48,35.2,48,24.6C48,11.3,37.3,0.6,24,0.6z"/></g></svg>